<?xml version="1.0" encoding="UTF-8"?>
<svg viewBox="0 0 606.05023 828.31598" xmlns="http://www.w3.org/2000/svg">
 <g transform="translate(-8.0752 -9.8848)" fill="#d87c08">
  <path transform="matrix(.28047,.95986,-.97111,.23861,0,0)" d="m626.71-368.58h280.34a44.398 44.209 0 0 1 44.398 44.209 44.398 44.209 0 0 1 -44.398 44.209h-280.34a44.398 44.209 0 0 1 -44.398 -44.209 44.398 44.209 0 0 1 44.398 -44.209"/>
  <path d="m178.1 480.72h311.13a44.447 44.447 0 0 1 44.447 44.447 44.447 44.447 0 0 1 -44.447 44.447h-311.13a44.447 44.447 0 0 1 -44.447 -44.447 44.447 44.447 0 0 1 44.447 -44.447"/>
  <path transform="rotate(-90)" d="m-523.15 131.63h311.13a44.447 44.447 0 0 1 44.447 44.447 44.447 44.447 0 0 1 -44.447 44.447h-311.13a44.447 44.447 0 0 1 -44.447 -44.447 44.447 44.447 0 0 1 44.447 -44.447"/>
  <path transform="matrix(1.6364 0 0 1.6364 -50.324 -376.56)" d="m139.78 236.16a66.67 66.67 0 1 1 -0.38318 -0.0011"/>
  <path d="m176.67 277.87h311.13a44.447 44.447 0 0 1 44.447 44.447 44.447 44.447 0 0 1 -44.447 44.447h-311.13a44.447 44.447 0 0 1 -44.447 -44.447 44.447 44.447 0 0 1 44.447 -44.447"/>
  <path transform="translate(8.0752 9.8848)" d="m44.438 545.47c-24.623 3e-5 -44.438 19.845-44.438 44.469v193.94c0 24.624 19.814 44.438 44.438 44.438h14.156v-191.69c0-24.623 19.814-44.438 44.438-44.438h224.25c24.623 3e-5 44.469 19.814 44.469 44.438v191.69h12.125c24.623 3e-5 44.438-19.814 44.438-44.438v-193.94c0-24.623-19.814-44.469-44.438-44.469h-339.44z"/>
  <path d="m52.231 195.39c-24.46 0-44.156 19.814-44.156 44.438v356.81c0 24.623 19.696 44.437 44.156 44.438 5.3403 0 10.457-0.95408 15.188-2.6875 2.8541-15.546 13.727-28.213 28.219-33.562 0.48813-2.6559 0.75-5.3851 0.75-8.1875v-356.81c0-24.623-19.696-44.438-44.156-44.438z"/>
 </g>
</svg>
